<svg xmlns="http://www.w3.org/2000/svg" viewBox="0 0 700 1100">
  <defs><linearGradient id="g" x1="0" y1="0" x2="1" y2="1"><stop stop-color="#4F46E5"/><stop offset=".5" stop-color="#A855F7"/><stop offset="1" stop-color="#06B6D4"/></linearGradient></defs>
  <rect width="700" height="1100" rx="48" fill="#fff"/><rect x="1" y="1" width="698" height="1098" rx="47" fill="none" stroke="#DCE4EF" stroke-width="2"/>
  <circle cx="350" cy="130" r="48" fill="url(#g)"/><text x="350" y="220" text-anchor="middle" font-family="Montserrat,Arial" font-size="36" letter-spacing="9" fill="#071B3D">COGNITA</text>
  <text x="350" y="260" text-anchor="middle" font-family="Inter,Arial" font-size="13" letter-spacing="3" fill="#5B6780">INSTITUTE OF AI</text>
  <circle cx="350" cy="470" r="150" fill="#F3F6FA"/><circle cx="350" cy="435" r="55" fill="#DCE4EF"/><path d="M235 615c18-95 212-95 230 0" fill="#DCE4EF"/>
  <text x="350" y="700" text-anchor="middle" font-family="Montserrat,Arial" font-size="34" font-weight="600" fill="#071B3D">ALEXANDRA REYES</text>
  <text x="350" y="742" text-anchor="middle" font-family="Inter,Arial" font-size="17" letter-spacing="4" fill="#4F46E5">STUDENT</text>
  <text x="350" y="800" text-anchor="middle" font-family="Inter,Arial" font-size="16" fill="#5B6780">ID: 2307-0001</text>
  <rect x="170" y="865" width="360" height="110" rx="16" fill="#F3F6FA"/><path d="M205 930h290" stroke="#071B3D" stroke-width="28" stroke-dasharray="3 7"/>
  <path d="M0 1060c160-90 300-10 430-80 90-48 170-52 270-4v124H0Z" fill="url(#g)" opacity=".15"/>
</svg>
